# xmcd
#
# Track frame offsets:
# 150
# 11385
# 22993
# 37898
# 53035
# 68208
# 83313
# 96375
# 108193
# 120903
# 132825
# 145108
# 155738
# 167755
# 183693
# 196643
# 207833
# 221760
#
# Disc length: 3092 seconds
#
#
# Revision: 0
# Processed by: cddbd v1.5.2PL0 Copyright (c) Steve Scherf et al.
# Submitted via: FreeRIP 2.944 
#
DISCID=e60c1212
DTITLE=Various Artist - Les Plus Beaux Tangos and Paso Dobles CD1
DYEAR=1900
DGENRE=
TTITLE0=La Cumparsita (tango) - Primo Corchia
TTITLE1=Adios Muchachos (tango) - Primo Corchia
TTITLE2=Tarde De Madrid (Paso Doble) - Primo Corchia
TTITLE3=Trinia (Paso Doble) - Primo Corchia
TTITLE4=Violetta (Tango) - Emilio Armangol
TTITLE5=Tristesse (Tango) - Emilio Armangol
TTITLE6=El Gato Montes (Paso Doble) - Emilio Armangol
TTITLE7=La Muerte De Manolette (Paso Doble) - Emilio Armangol
TTITLE8=Jalousie (Tango) - Primo Corchia
TTITLE9=Martha (Tango) - Primo Corchia
TTITLE10=Espana Cani (Paso Doble) - Pepe Numez
TTITLE11=Adios Sevilla (Paso Doble) - Pepe Numez
TTITLE12=Tango De Marilou (Tango) - Ramon Ramirez
TTITLE13=Le Plus Beau Tango Du Monde (Tango) - Ramon Ramirez
TTITLE14=El Relicario (Paso Doble) - Angelito Miguel
TTITLE15=Islas Canarias (Paso Doble) - Angelito Miguel
TTITLE16=Rêve d'Amour (Tango) - Primo Corchia
TTITLE17=La Paloma (Tango) - Primo Corchia
EXTD=tango paso doble
EXTT0=
EXTT1=
EXTT2=
EXTT3=
EXTT4=
EXTT5=
EXTT6=
EXTT7=
EXTT8=
EXTT9=
EXTT10=
EXTT11=
EXTT12=
EXTT13=
EXTT14=
EXTT15=
EXTT16=
EXTT17=
PLAYORDER=
